<?xml version="1.0" encoding="UTF-8" standalone="no"?>
<!-- Generator: Adobe Illustrator 16.0.0, SVG Export Plug-In . SVG Version: 6.00 Build 0)  -->

<svg
   xmlns:dc="http://purl.org/dc/elements/1.1/"
   xmlns:cc="http://creativecommons.org/ns#"
   xmlns:rdf="http://www.w3.org/1999/02/22-rdf-syntax-ns#"
   xmlns:svg="http://www.w3.org/2000/svg"
   xmlns="http://www.w3.org/2000/svg"
   xmlns:sodipodi="http://sodipodi.sourceforge.net/DTD/sodipodi-0.dtd"
   xmlns:inkscape="http://www.inkscape.org/namespaces/inkscape"
   version="1.1"
   id="Laag_1"
   x="0px"
   y="0px"
   width="200"
   height="225.6308"
   viewBox="0 0 200 225.6308"
   enable-background="new 0 0 1296 1296"
   xml:space="preserve"
   inkscape:version="0.48.2 r9819"
   sodipodi:docname="PCRM_Logo.svg"><metadata
   id="metadata3061"><rdf:RDF><cc:Work
       rdf:about=""><dc:format>image/svg+xml</dc:format><dc:type
         rdf:resource="http://purl.org/dc/dcmitype/StillImage" /><dc:title></dc:title></cc:Work></rdf:RDF></metadata><defs
   id="defs3059"><clipPath
     clipPathUnits="userSpaceOnUse"
     id="clipPath3254"><path
       inkscape:connector-curvature="0"
       d="m 953.827,516.265 63,0 0,62.357 -63,0 0,-62.357 z"
       id="path3256" /></clipPath></defs><sodipodi:namedview
   pagecolor="#ffffff"
   bordercolor="#666666"
   borderopacity="1"
   objecttolerance="10"
   gridtolerance="10"
   guidetolerance="10"
   inkscape:pageopacity="0"
   inkscape:pageshadow="2"
   inkscape:window-width="1240"
   inkscape:window-height="785"
   id="namedview3057"
   showgrid="false"
   fit-margin-top="0"
   fit-margin-left="0"
   fit-margin-right="0"
   fit-margin-bottom="0"
   inkscape:zoom="1"
   inkscape:cx="1.8003697"
   inkscape:cy="-26.200401"
   inkscape:window-x="1920"
   inkscape:window-y="0"
   inkscape:window-maximized="0"
   inkscape:current-layer="g4537" />















<g
   id="g4537"
   transform="matrix(3.3516305,0,0,-3.3516305,-3.0149095e-7,72.618814)"><path
     inkscape:connector-curvature="0"
     d="m 0,0.93169402 c 0,0 14.862245,-4.43673472 28.393878,-0.66632654 C 41.92551,4.0367961 56.344898,14.240878 59.672449,17.347 L 38.377551,-12.157082 52.130612,-41.216265 29.060204,-22.80402 8.6520408,-45.653 18.856123,-14.596877 0,0.93169402 z"
     style="fill:#e30a17;fill-opacity:1;fill-rule:nonzero;stroke:none"
     id="path4539" /></g><g
   id="g4541"
   transform="matrix(3.4200311,0,0,-3.4200311,66.785685,29.587777)"><path
     inkscape:connector-curvature="0"
     d="M 0,0 C 0.703,5.3 4.637,9.149 8.785,8.599 12.935,8.048 15.728,3.306 15.023,-1.994 14.32,-7.293 10.387,-11.144 6.238,-10.593 2.09,-10.042 -0.704,-5.3 0,0"
     style="fill:#e30a17;fill-opacity:1;fill-rule:nonzero;stroke:none"
     id="path4543" /></g></svg>