<?xml version="1.0" encoding="utf-8"?>
<!-- Generator: Adobe Illustrator 24.1.2, SVG Export Plug-In . SVG Version: 6.00 Build 0)  -->
<svg version="1.1" id="Слой_1" xmlns="http://www.w3.org/2000/svg" xmlns:xlink="http://www.w3.org/1999/xlink" x="0px" y="0px"
	 viewBox="0 0 42.5 42.5" style="enable-background:new 0 0 42.5 42.5;" xml:space="preserve">
<style type="text/css">
	.st0{clip-path:url(#SVGID_1_);}
	.st1{fill:#F83F2F;}
	.st2{fill:#D61427;}
</style>
<g>
	<defs>
		<rect id="SVGID_3_" x="-471.8" y="-20.1" width="595.3" height="841.9"/>
	</defs>
	<clipPath id="SVGID_1_">
		<use xlink:href="#SVGID_3_"  style="overflow:visible;"/>
	</clipPath>
	<g class="st0">
		<g>
			<path class="st1" d="M40.6,13.4c0,0,0-0.1-0.1-0.1c0,0,0-0.1,0-0.1c-4.4-10.6-9.3-9.9-13.3-6.3C26.9,1.5,24-2.5,13.4,1.9
				c0,0-0.1,0-0.1,0.1c0,0-0.1,0-0.1,0C2.5,6.4,3.3,11.3,6.8,15.3c-5.3,0.3-9.4,3.2-4.9,13.9c0,0,0,0.1,0.1,0.1c0,0,0,0.1,0,0.1
				c4.4,10.7,9.3,9.9,13.3,6.3c0.2,5.4,3.4,9.4,14,4.9c0,0,0.1,0,0.1,0c10.6-4.4,9.9-9.3,6.3-13.3C41,26.9,45,24,40.6,13.4z"/>
		</g>
		<path class="st2" d="M25.6,19.5c-0.1-1.4,1.9-7.6,1.6-12.6c-3.8,3.3-6.7,9.1-7.8,10.1C18,17,11.8,15,6.8,15.3
			c3.3,3.8,9.1,6.7,10.1,7.8c0.1,1.4-1.9,7.6-1.6,12.6c3.8-3.3,6.7-9.1,7.8-10.1c1.4-0.1,7.6,1.9,12.6,1.6
			C32.3,23.5,26.6,20.5,25.6,19.5"/>
		<path d="M18.6,15.2c2.1,0.8,3.4-2.3,1.3-3.2C17.9,11.2,16.6,14.3,18.6,15.2"/>
		<path d="M23.7,15.4c2.1,0.8,3.4-2.3,1.3-3.2C22.9,11.4,21.6,14.5,23.7,15.4"/>
		<path d="M21.8,30.3c0.8-2.1-2.3-3.4-3.2-1.3C17.8,31.1,20.9,32.3,21.8,30.3"/>
		<path d="M17.7,26.4c2.1,0.8,3.4-2.3,1.3-3.2C17,22.4,15.7,25.5,17.7,26.4"/>
		<path d="M14,18.5c2.1,0.8,3.4-2.3,1.3-3.2C13.2,14.5,11.9,17.6,14,18.5"/>
		<path d="M13.5,23.7c2.1-0.9,0.8-4-1.3-3.2C10.2,21.5,11.5,24.6,13.5,23.7"/>
		<path d="M23.1,25.6c5.6-2.5,2.2-10.9-3.6-8.7C13.8,19.4,17.3,27.8,23.1,25.6"/>
		<path d="M25.7,22.5c3.4-1.5,1.3-6.6-2.2-5.2C20.2,18.7,22.3,23.8,25.7,22.5"/>
	</g>
</g>
</svg>
