<?xml version="1.0" encoding="UTF-8"?>
<svg version="1.1" xmlns="http://www.w3.org/2000/svg" width="461" height="500">
<path d="M0 0 C6.46979598 2.61872694 10.25986025 6.34090139 13.23779297 12.6027832 C17.25328383 22.74514655 19.38379065 33.07209283 21.55493164 43.72973633 C22.03937189 46.08871848 22.5369501 48.44467446 23.03515625 50.80078125 C23.17381607 51.50616531 23.31247589 52.21154938 23.45533752 52.93830872 C24.55324177 58.11887971 26.48933617 62.33556603 29 67 C36.26701772 59.04088536 36.33343781 46.20654893 37.72680664 36.00732422 C39.36879654 24.12047545 41.15690307 11.84309693 50 3 C52.01733398 3.16040039 52.01733398 3.16040039 54 4 C57.02424132 10.02790957 57.50834085 15.39460524 57.4375 22.0625 C57.43427734 23.04275146 57.43105469 24.02300293 57.42773438 25.03295898 C57.26126144 34.30449685 56.01402615 43.3901467 54.71795654 52.55743408 C53.50467489 61.20276263 52.59264118 69.70183395 52.5625 78.4375 C52.55283203 79.29996338 52.54316406 80.16242676 52.53320312 81.05102539 C52.60920679 86.64791303 53.65521177 90.90190434 56 96 C59.99710046 99.80676234 63.4544732 100.48095598 68.75390625 100.7265625 C72.31427126 99.57486182 74.06470983 97.04553762 76 94 C77.57935852 90.81449625 78.90716836 87.54076643 80.25 84.25 C84.30855406 74.80885494 88.43877827 67.70748115 97.1875 61.875 C103.10088311 60.5178301 108.96211044 60.77389318 115 61 C113.54657656 64.07087235 111.84476173 66.83345487 109.9453125 69.6484375 C84.32007694 108.00321312 67.06145575 148.71829489 63 195 C62.88914062 196.11890625 62.77828125 197.2378125 62.6640625 198.390625 C60.90996481 219.15534897 61.8559723 240.22494374 63 261 C63.66974854 261.03665771 64.33949707 261.07331543 65.02954102 261.11108398 C74.14213681 261.72918493 82.99342779 263.30143821 91.9375 265.0625 C93.11394073 265.29250702 93.11394073 265.29250702 94.31414795 265.52716064 C125.17916483 271.60432787 155.52808393 280.49975039 184 294 C184 294.33 184 294.66 184 295 C178.12829897 295.14491325 172.70280763 294.63229311 166.921875 293.64453125 C165.12531836 293.35070145 163.32868389 293.05734724 161.53198242 292.7644043 C160.1205043 292.53133072 160.1205043 292.53133072 158.68051147 292.29354858 C73.95531138 278.38575881 -8.34341968 278.45112708 -93.02636719 292.7644043 C-93.91367523 292.9129184 -94.80098328 293.0614325 -95.71517944 293.21444702 C-97.3601689 293.49099614 -99.00432315 293.77258587 -100.64736938 294.06045532 C-105.16892296 294.82244132 -109.41402501 295.13149342 -114 295 C-111.36742584 292.36742584 -108.86315933 291.71511193 -105.3515625 290.4609375 C-104.6762851 290.21910736 -104.00100769 289.97727722 -103.30526733 289.7281189 C-101.08124755 288.93575391 -98.8537002 288.15409769 -96.625 287.375 C-95.85881348 287.10610962 -95.09262695 286.83721924 -94.30322266 286.56018066 C-24.11040892 262 -24.11040892 262 3 262 C2.98952637 260.96633301 2.97905273 259.93266602 2.96826172 258.86767578 C2.7995585 240.54458681 2.7658837 222.28904282 4 204 C6.15523827 171.66862576 7.27205065 138.07755169 -13.3359375 110.921875 C-15.46709671 108.49249897 -17.65535863 106.22238819 -20 104 C-20.53753906 103.47792969 -21.07507813 102.95585937 -21.62890625 102.41796875 C-24.87560249 99.46420751 -28.41257484 97.01678702 -32.02539062 94.53027344 C-40.71656173 88.51436778 -48.83402555 82.04176253 -53 72 C-52.505 70.515 -52.505 70.515 -52 69 C-39.28227564 70.22670963 -30.48298719 76.81786236 -20.48046875 84.265625 C-16.52025121 87.034659 -12.92893105 89 -8 89 C-10.88836748 77.52751235 -19.82072993 69.55469053 -27.640625 61.16796875 C-34.8561313 53.3757128 -41.18067583 45.80285221 -41.0625 34.8125 C-41.05347656 33.72582031 -41.04445313 32.63914063 -41.03515625 31.51953125 C-41.02355469 30.68808594 -41.01195312 29.85664063 -41 29 C-31.49205555 29.76063556 -26.11945827 35.19974232 -20 42 C-17.43732838 45.43852563 -15.11604653 49.00917669 -12.8125 52.625 C-6.50754905 63.45291268 -6.50754905 63.45291268 2.8125 71.375 C3.864375 71.91125 4.91625 72.4475 6 73 C7.64824401 71.35175599 7.22320417 69.4897973 7.26953125 67.21875 C7.20656716 60.61072263 5.60393653 54.78529485 3.6875 48.5 C3.06612241 46.38550006 2.44502652 44.27091731 1.82421875 42.15625 C1.51959717 41.13442627 1.21497559 40.11260254 0.90112305 39.05981445 C-6.4836148 13.98451794 -6.4836148 13.98451794 -1 1 C-0.67 0.67 -0.34 0.34 0 0 Z " fill="#1D1D1D" transform="translate(198,205)"/>
<path d="M0 0 C10.85997774 4.53548954 19.14582236 17.84241515 26 27 C26.95519531 28.24523437 26.95519531 28.24523437 27.9296875 29.515625 C39.20498743 44.7918378 48.51306624 63.58231665 47 83 C45.27008305 93.27687952 40.78054138 102.6124605 32.60546875 109.26953125 C23.2359219 115.49248366 11.50628796 122.09759874 0 121 C-3.21243084 120.04530458 -6.24563668 118.78236866 -9.3125 117.4375 C-10.57163208 116.8954895 -10.57163208 116.8954895 -11.85620117 116.3425293 C-18.13319189 113.56147622 -23.65819925 110.3361581 -29 106 C-30.051875 105.2575 -31.10375 104.515 -32.1875 103.75 C-40.27225768 95.8449036 -44.97065995 85.91417414 -45.375 74.625 C-44.28170031 44.51720866 -20.37993704 19.72951352 0 0 Z " fill="#1D1D1D" transform="translate(228,80)"/>
<path d="M0 0 C5.65624212 19.12348526 5.27851453 40.830521 -3.6875 58.8125 C-11.8841888 72.67273006 -24.38298408 82.78177646 -39.875 87.25 C-45.47937094 88.49281029 -51.28442042 88.6689146 -57 89 C-55.75964609 85.27893828 -54.88544168 85.18768976 -51.5 83.4375 C-42.44580982 78.20446304 -36.48221526 70.32480963 -32 61 C-32.68964844 61.76183594 -33.37929688 62.52367187 -34.08984375 63.30859375 C-52.15078187 83.19373837 -52.15078187 83.19373837 -63 90 C-63.66 90 -64.32 90 -65 90 C-67.84890475 70.76989293 -66.66924924 51.20095252 -55.44140625 34.7109375 C-43.7432484 18.98731656 -28.42333986 10.12564161 -11 2 C-10.37722168 1.69416992 -9.75444336 1.38833984 -9.11279297 1.07324219 C-3.52602808 -1.55145236 -3.52602808 -1.55145236 0 0 Z M-30 57 C-29 59 -29 59 -29 59 Z " fill="#A2A2A2" transform="translate(377,93)"/>
<path d="M0 0 C18.95927007 2.28636838 39.33129645 17.62030717 51.33984375 31.75390625 C64.52127602 49.0100457 66.7037909 68.39021021 64.21875 89.375 C64.11046875 90.179375 64.11046875 90.179375 64 91 C52.09133461 86.70370391 43.17777237 75.39400048 34.53710938 66.56884766 C33.36493477 65.37246995 32.18433798 64.18433798 31 63 C37.25263144 73.01842083 43.5328631 80.6459254 53.875 86.58984375 C54.57625 87.05519531 55.2775 87.52054687 56 88 C56 88.66 56 89.32 56 90 C37.28933424 88.60709488 22.79127168 83.85070779 9.4296875 70.03125 C-3.48561498 53.91826813 -5.31724599 34.97304489 -4 15 C-2.50885559 2.50885559 -2.50885559 2.50885559 0 0 Z " fill="#A2A2A2" transform="translate(85,92)"/>
<path d="M0 0 C1.10819092 0.00749268 1.10819092 0.00749268 2.23876953 0.01513672 C22.3042239 0.64016161 39.75307519 14.52542319 53.9375 27.5 C51.77779713 32.25134632 48.44355673 35.69219249 44.9375 39.5 C44.4115625 40.08007812 43.885625 40.66015625 43.34375 41.2578125 C32.55932087 52.62375497 18.39959689 62.3670821 2.5 63.8125 C-6.47139746 63.02553531 -13.52897564 59.39084647 -19.6484375 52.7890625 C-21.26276422 50.76474804 -22.66095175 48.67740531 -24.0625 46.5 C-25.06796875 45.05947266 -25.06796875 45.05947266 -26.09375 43.58984375 C-29.89616237 37.57179493 -31.70985745 33.44467439 -30.375 26.3125 C-27.69752061 17.16020354 -23.35166501 8.68678746 -15.0625 3.5 C-9.98017894 0.92800014 -5.73270242 -0.05164597 0 0 Z " fill="#777777" transform="translate(351.0625,211.5)"/>
<path d="M0 0 C7.33303488 5.6067757 12.4291883 14.38592569 14.0078125 23.53515625 C14.48425456 29.18535646 13.28689485 33.04441895 10.5703125 37.91015625 C10.21195312 38.56282471 9.85359375 39.21549316 9.484375 39.88793945 C4.26745472 48.99837008 -2.69583521 56.20774444 -13.0390625 59.109375 C-23.84662252 61.46542308 -35.00005829 56.20594541 -44.01953125 50.64453125 C-49.48347015 46.76736041 -54.22582981 42.21531725 -58.9921875 37.53515625 C-59.98393717 36.58157568 -60.97611929 35.62844466 -61.96875 34.67578125 C-67.09816239 29.6764103 -67.09816239 29.6764103 -68.9921875 27.53515625 C-68.9921875 26.87515625 -68.9921875 26.21515625 -68.9921875 25.53515625 C-69.6521875 25.53515625 -70.3121875 25.53515625 -70.9921875 25.53515625 C-69.64113272 21.48199192 -66.89469998 19.79370564 -63.6171875 17.28515625 C-62.98304932 16.79571533 -62.34891113 16.30627441 -61.69555664 15.80200195 C-45.58480046 3.50775082 -20.27424723 -12.33636399 0 0 Z " fill="#777777" transform="translate(125.9921875,215.46484375)"/>
<path d="M0 0 C10.77752457 4.2434156 17.8229109 14.70154765 22.26171875 24.8984375 C25.95901444 35.19897356 27.16522844 47.95745364 23.5625 58.5 C20.45173641 64.87651184 15.53587425 71.37553421 9.015625 74.37109375 C3.94826593 75.42788755 0.40435176 73.44080175 -4 71 C-6.93144725 68.89723042 -9.47614879 66.57291095 -12 64 C-12.54527344 63.4534375 -13.09054688 62.906875 -13.65234375 62.34375 C-22.75648555 52.52146979 -26.74419686 38.94326006 -26.28125 25.69140625 C-25.21410687 15.47943939 -21.79399292 8.4595283 -14.3125 1.5 C-9.46976506 -0.69293658 -5.2259089 -0.84865187 0 0 Z " fill="#1D1D1D" transform="translate(201,0)"/>
<path d="M0 0 C-4.30783471 11.71570002 -15.01520015 17.47931438 -25 24 C-14.50831179 18.9137253 -6.11849964 12.25404953 1 3 C3.2280941 7.4561882 -0.48520792 15.3714018 -2 20 C-6.66042673 32.02742432 -14.99560513 40.50480443 -26.51171875 46.25390625 C-42.18776375 52.9229929 -57.04255513 51.79300817 -73 47 C-73.66 46.67 -74.32 46.34 -75 46 C-73.38396656 35.09688834 -66.24530782 24.97495896 -59 17 C-58.18789062 16.08347656 -57.37578125 15.16695313 -56.5390625 14.22265625 C-41.59680746 -1.74934364 -20.78653407 -9.86479583 0 0 Z " fill="#A2A2A2" transform="translate(141,301)"/>
<path d="M0 0 C9.5667959 9.25313046 17.3259845 19.95966428 22.109375 32.453125 C22.12890625 34.7265625 22.12890625 34.7265625 21.109375 36.453125 C10.59944925 42.39591024 -4.2388598 41.90285154 -15.74609375 39.72265625 C-29.4629211 35.78288755 -39.96848585 28.65669025 -47.3515625 16.3515625 C-51.30007905 8.91552372 -53.34108404 1.83362465 -53.890625 -6.546875 C-53.230625 -5.886875 -52.570625 -5.226875 -51.890625 -4.546875 C-51.19453125 -3.86044922 -51.19453125 -3.86044922 -50.484375 -3.16015625 C-49.37483425 -2.03701818 -48.29313614 -0.8859734 -47.234375 0.28515625 C-41.53085962 6.41160179 -35.10624409 10.31734333 -27.890625 14.453125 C-28.36371094 14.10121094 -28.83679688 13.74929688 -29.32421875 13.38671875 C-30.73339806 12.33464141 -32.13936789 11.27825823 -33.54296875 10.21875 C-35.06814151 9.07169827 -36.60162548 7.93558566 -38.14453125 6.8125 C-43.73923765 2.64809246 -48.6993311 -1.9394491 -52.890625 -7.546875 C-52.890625 -8.206875 -52.890625 -8.866875 -52.890625 -9.546875 C-33.53696462 -17.91918281 -15.7917772 -13.91383613 0 0 Z " fill="#A2A2A2" transform="translate(384.890625,310.546875)"/>
<path d="M0 0 C5.07037489 3.04222494 8.67765984 8.19931161 10.62109375 13.78515625 C12.46594956 24.56900412 11.05371702 34.90571124 7 45 C6.649375 45.88300781 6.29875 46.76601563 5.9375 47.67578125 C1.74304833 57.04047716 -5.31486917 64.61521889 -14 70 C-19.3377083 71.7792361 -24.16242516 71.83210936 -29.3125 69.5 C-35.48328194 63.75973773 -36.92282077 56.80448074 -37.25 48.625 C-37.0102118 32.63112716 -32.60267759 15.53777257 -21.1796875 3.9609375 C-13.80177954 -2.67653525 -9.25624006 -3.56580676 0 0 Z " fill="#1D1D1D" transform="translate(273,3)"/>
<path d="M0 0 C10.1192838 5.73212595 16.95108122 15.41491146 20.21484375 26.53515625 C22.64230167 37.43213889 22.19913916 47.98690044 16.1875 57.6875 C14.36722547 59.8297887 13.25708302 60.78474237 10.55859375 61.59765625 C1.16211946 62.18587856 -7.55796838 57.73287043 -14.5625 51.8125 C-23.81641198 42.85614146 -29.2495363 32.74018377 -29.6875 19.875 C-29.49114121 11.94381239 -27.57813648 7.21326809 -22.1875 1.5 C-15.94816425 -3.9428248 -7.25323389 -3.3878045 0 0 Z " fill="#1C1C1C" transform="translate(164.25,58.0625)"/>
<path d="M0 0 C4.00821819 3.1827465 6.92775864 6.65686569 7.90234375 11.7734375 C9.27614843 26.54183783 5.51096629 40.58222147 -4.05078125 52.1328125 C-9.63829516 57.97624308 -14.82389252 61.33797625 -23.09765625 61.7734375 C-28.4596013 60.83274539 -32.51506705 58.90480482 -36.09765625 54.7734375 C-41.26944689 46.48869007 -42.46740045 38.04895034 -40.37890625 28.48046875 C-37.31921561 17.95661343 -32.56336312 6.69369384 -23.046875 0.421875 C-15.45910293 -3.5506309 -7.6781057 -4.4896186 0 0 Z " fill="#1D1D1D" transform="translate(311.09765625,67.2265625)"/>
<path d="M0 0 C2.95375116 36.13070611 2.95375116 36.13070611 -9.1875 51.25 C-15.55195059 58.08283008 -24.2199704 62.12960571 -33 65 C-33.66 65 -34.32 65 -35 65 C-40.36264577 54.97062433 -43.81092133 43.71401966 -40.88671875 32.37109375 C-34.83998296 16.20206898 -21.57846717 8.90694392 -6.75 2 C-2.30263158 0 -2.30263158 0 0 0 Z " fill="#A2A2A2" transform="translate(306,195)"/>
<path d="M0 0 C10.54460273 3.87199316 17.36033959 10.5992179 22.8125 20.1875 C27.0266656 33.71718956 23.90978778 46.78525876 20 60 C8.7431357 56.2477119 -1.18920918 46.02830028 -7 36 C-10.3814963 29.06849431 -10.12273883 20.90051098 -8.01953125 13.59375 C-5.93300227 8.40631795 -3.62337906 4.28147141 0 0 Z " fill="#777777" transform="translate(304,321)"/>
<path d="M0 0 C3.87915841 2.24620386 6.75046477 4.77856377 8.375 9.04296875 C9.15717349 13.64910154 8.52592097 16.33787823 5.9375 20.10546875 C-0.88659668 28.34528712 -11.70464934 34.19542847 -22.29296875 35.4921875 C-32.26717033 35.79698397 -32.26717033 35.79698397 -36.3125 33.41796875 C-39.48900969 30.15560745 -41.51658457 27.55911012 -41.71875 22.8671875 C-41.25825992 16.01739754 -38.53379424 11.69770029 -33.625 6.98046875 C-24.37694605 -0.44540508 -11.49029071 -4.18916849 0 0 Z " fill="#777777" transform="translate(448.625,199.95703125)"/>
<path d="M0 0 C6.22590506 8.15090635 9.97897491 17.72076345 9 28 C6.37782537 41.18174273 -4.31650672 50.22044281 -14.9375 57.5 C-18.70744681 60 -18.70744681 60 -21 60 C-28.5261959 30.97038724 -28.5261959 30.97038724 -22.44921875 18.3046875 C-18.04781092 11.30514405 -9.19881536 0 0 0 Z " fill="#777777" transform="translate(170,321)"/>
<path d="M0 0 C7.6303918 3.61171878 14.49861046 8.41763118 17.625 16.4375 C18.42868782 20.84000232 18.66558698 24.63359843 16.37890625 28.59765625 C13.23808547 32.41206951 11.02983825 34.19210834 5.9453125 34.7109375 C-5.66291147 35.07990305 -15.52388753 31.90975111 -24.42578125 24.32421875 C-32.25562416 16.74543293 -32.25562416 16.74543293 -32.5625 10.8125 C-30.7751913 5.73278055 -28.27225712 2.58347597 -23.65234375 -0.20703125 C-16.41286869 -3.2011884 -7.31937833 -2.66159212 0 0 Z " fill="#777777" transform="translate(35.375,200.5625)"/>
<path d="M0 0 C5.43522162 4.59082112 5.43522162 4.59082112 6.6875 8.34765625 C4.00417719 16.34172211 -0.68700039 22.67152285 -7.97265625 26.88671875 C-15.90071814 30.6261735 -23.8544135 31.87474891 -32.4765625 29.8359375 C-36.9832144 28.11864504 -42.1225804 24.72749545 -44.3125 20.34765625 C-45.10594421 15.50664222 -44.86400662 11.41339444 -42.1875 7.22265625 C-32.45750484 -4.42067129 -12.72605473 -9.09311005 0 0 Z " fill="#1D1D1D" transform="translate(44.3125,243.65234375)"/>
<path d="M0 0 C7.22099651 5.8775553 7.22099651 5.8775553 8.171875 10.5859375 C8.41407694 15.06667339 8.01102351 17.62394292 5.75 21.5625 C0.11016313 27.06173151 -6.0175713 28.45342042 -13.75 28.6875 C-20.36624015 28.49543697 -25.53198435 27.39889758 -31.3125 24.1875 C-31.96863281 23.82527344 -32.62476563 23.46304687 -33.30078125 23.08984375 C-37.83050332 20.22845614 -41.46164034 16.27736407 -43.3125 11.1875 C-43.16334 7.97558798 -42.71991514 6.6158979 -40.4921875 4.2734375 C-27.62955753 -5.27543018 -14.55555861 -7.96436226 0 0 Z " fill="#1D1D1D" transform="translate(453.3125,245.8125)"/>
<path d="M0 0 C1.78515625 1.40625 1.78515625 1.40625 3 3 C3.65589456 9.0461553 1.41388175 15.09642439 -2 20 C-6.8465478 25.43699017 -12.38494484 28.43870951 -19.6015625 29.31640625 C-27.70065045 29.6700284 -34.28693129 27.47537914 -41 23 C-42.16634518 17.34690353 -41.24771609 11.85254137 -38.390625 6.8828125 C-28.74947949 -6.17064856 -13.54923598 -8.97384099 0 0 Z " fill="#767676" transform="translate(77,274)"/>
<path d="M0 0 C5.54888851 4.21046314 8.16695552 9.29189933 9.2421875 15.9921875 C9.46719284 19.69915049 9.36278258 20.58959174 7.2421875 23.8046875 C-0.19131122 28.81092133 -6.97742559 29.87179552 -15.8203125 28.8671875 C-23.51713639 27.05474859 -28.31456972 22.16861751 -32.8203125 15.8671875 C-34.90088649 11.53265836 -35.58698091 7.6375687 -34.8203125 2.8671875 C-25.87846014 -8.39387729 -11.15977621 -6.94492511 0 0 Z " fill="#777777" transform="translate(415.8203125,274.1328125)"/>
<path d="M0 0 C2.86012436 2.7095915 4.15503886 4.70004128 4.7109375 8.6171875 C4.80114189 14.40830903 4.36858804 17.75721346 0.375 22.25 C-6.56749995 29.23767891 -13.07280791 32.76465244 -23 33.5 C-28.47723503 33.12225965 -32.23857862 31.7458757 -36 27.6875 C-38.68988249 23.65267627 -38.92346974 21.44933309 -38.3125 16.69140625 C-36.13005188 8.94123537 -28.28345573 3.99846397 -21.625 0.25 C-15.54413711 -2.7228663 -5.97305611 -3.73683806 0 0 Z " fill="#1D1D1D" transform="translate(407.625,179.75)"/>
<path d="M0 0 C6.30900134 4.11309726 12.87098677 8.85671752 14.5625 16.5625 C13.69528583 20.32042805 12.03086218 21.64953545 9 24 C1.69796011 27.80467008 -5.64390809 27.6007706 -13.41796875 25.27734375 C-19.94042095 22.68407962 -25.74561601 18.51683902 -29.5625 12.5625 C-30.32034896 8.12367035 -30.24404955 4.08389528 -27.91796875 0.1875 C-20.40958217 -9.24902211 -9.14379967 -4.54452319 0 0 Z " fill="#1D1D1D" transform="translate(78,184)"/>
<path d="M0 0 C12.94722959 2.57588861 23.18109969 6.98154969 31 18 C33.90268271 23.68442031 33.89019035 30.51642275 32.32421875 36.64453125 C31.6101227 38.79358808 30.85137872 40.90195959 30 43 C20.94012858 42.49667381 13.86920388 39.36914609 7.5625 32.75 C1.17288316 25.0077425 -0.16283846 15.95816873 -0.0625 6.125 C-0.05347656 4.97257813 -0.04445312 3.82015625 -0.03515625 2.6328125 C-0.02355469 1.76398438 -0.01195312 0.89515625 0 0 Z " fill="#A2A2A2" transform="translate(154,186)"/>
<path d="" fill="#A2A2A2" transform="translate(0,0)"/>
</svg>
